# xmcd CD database file
#
# Track frame offsets:
#	150
#	20277
#	50611
#	73036
#	97310
#	128774
#	153038
#	181190
#	204341
#	211238
#	224924
#	241142
#
# Disc length: 3412 seconds
#
# Revision: 2
# Processed by: cddbd v1.5.2PL0 Copyright (c) Steve Scherf et al.
# Submitted via: CDex 1.50
#
DISCID=aa0d520c
DTITLE=Laurent De Wilde, Dominique "Dume" Poutet and Otisto 23 (Computer) - Fly Superfly_De Wilde,Otisto23,Perret,Tiko,Chemirani
DYEAR=2014
DGENRE=Jazz
TTITLE0=Meet My Old Friend
TTITLE1=Feat.Guillaumer Perret_Monkadelik
TTITLE2=Feat.Tiko_Fly N' Lips
TTITLE3=Feat.Bijan Chemirani_Druminium
TTITLE4=Moronoxy
TTITLE5=Dakar At Dark
TTITLE6=Pick A Clic
TTITLE7=Goodbye To
TTITLE8=Take A Break
TTITLE9=Fly N' Lips (Radio Edit)
TTITLE10=Druminium (Radio Edit)
TTITLE11=Meet My Old Friend (Radio Edit)
EXTD=YEAR: 2014
EXTT0=
EXTT1=
EXTT2=
EXTT3=
EXTT4=
EXTT5=
EXTT6=
EXTT7=
EXTT8=
EXTT9=
EXTT10=
EXTT11=
PLAYORDER=
